:SAMPLES-PER-SECOND 30
:FULLY-SPECIFIED
:DEGREES
313
root  26.6973 37.0307 8.01226 160.239 -62.4002 -163.463
RightUpLeg  -2.90827 2.12566 4.99978
RightLeg  31.2954 -1.54473 -1.27969
RightFoot  -21.3412 0.937046 12.3412
RightToes  -5.8209e-011 0 -3.6325e-017
Spine  7.75149 -1.92607 0.238619
Spine1  16.5378 -5.60497 15.4074
HEad  21.4325 13.2492 -7.2288
LeftShoulder1  0.161565 9.50779 12.7327
LeftArm  -66.1528 -0.125375 -18.3914
LeftForeArm  112.041 -66.8675 -149.305
LeftHand  -1.15067 -1.01814 20.8905
RightShoulder  0.518139 -11.3341 -17.0958
RightArm  -75.0607 2.99064 15.6795
RightForeArm  141.613 52.1334 165.004
RightHand  -4.52824 9.42494 -34.7325
LeftUpLeg  -10.1626 -1.58718 12.224
LeftLeg  61.563 -13.3477 -24.339
LeftFoot  1.54717 3.51953 -30.4174
LeftToes  6.82088e-011 -2.45093e-011 5.71991e-013
314
root  25.748 37.2156 7.84601 160.141 -63.8519 -163.737
RightUpLeg  -0.652136 0.8632 3.7799
RightLeg  30.5819 -1.16536 -1.00607
RightFoot  -19.7796 0.852927 13.3448
RightToes  -5.8209e-011 0 -3.6325e-017
Spine  4.59924 -1.51199 1.30997
Spine1  20.0803 -4.85002 13.1909
HEad  25.1178 12.768 -6.74654
LeftShoulder1  0.277961 10.1956 14.4063
LeftArm  -60.6806 -5.78483 -16.0352
LeftForeArm  53.4301 -77.6917 -86.7491
LeftHand  -1.48915 -2.29757 22.3894
RightShoulder  0.580376 -11.3942 -17.9343
RightArm  -71.9023 6.79056 14.61
RightForeArm  134.773 63.9462 155.406
RightHand  -4.73848 9.7533 -35.4953
LeftUpLeg  -11.4237 -2.89941 11.9998
LeftLeg  60.7714 -8.6618 -15.8733
LeftFoot  -1.76891 2.06435 -24.0827
LeftToes  6.82088e-011 -2.45093e-011 5.71991e-013
315
root  24.7559 37.7779 7.7156 162.629 -66.3755 -166.755
RightUpLeg  2.07462 -0.452461 1.0317
RightLeg  28.6259 -1.51688 -1.14537
RightFoot  -15.8713 0.493571 15.2754
RightToes  -5.8209e-011 0 -3.6325e-017
Spine  3.0348 -0.996201 -0.737215
Spine1  20.8805 -4.51055 12.6779
HEad  29.6477 11.7511 -5.52501
LeftShoulder1  0.467435 10.2511 17.5191
LeftArm  -52.9505 -11.7479 -14.0297
LeftForeArm  -6.16211 -64.2531 -23.4947
LeftHand  -2.0179 -3.40149 26.5055
RightShoulder  0.666662 -10.9894 -19.6705
RightArm  -67.0066 10.0662 14.2024
RightForeArm  104.002 76.6639 124.508
RightHand  -5.03011 10.1317 -36.674
LeftUpLeg  -11.9026 -4.16615 9.76351
LeftLeg  56.3295 -2.62319 -3.85287
LeftFoot  -3.57781 1.03878 -15.1282
LeftToes  6.82088e-011 -2.45093e-011 5.71991e-013
316
root  23.7527 38.5423 7.6751 166.337 -69.1096 -171.048
RightUpLeg  4.84716 -1.4688 -1.9454
RightLeg  26.0001 -2.52681 -1.5763
RightFoot  -10.0033 -0.290816 18.1828
RightToes  -5.8209e-011 0 -3.6325e-017
Spine  3.66058 -0.386827 -3.22111
Spine1  19.7227 -4.0878 12.6242
HEad  32.2422 10.3129 -4.6947
LeftShoulder1  0.665135 10.7456 20.0824
LeftArm  -47.3831 -15.1783 -15.0914
LeftForeArm  -9.71605 -56.699 -17.6383
LeftHand  -2.32431 -3.66295 29.53
RightShoulder  0.797762 -10.9025 -21.7599
RightArm  -63.319 10.1405 15.0915
RightForeArm  55.2721 78.8954 79.6653
RightHand  -5.1869 10.2759 -37.4095
LeftUpLeg  -11.2481 -4.87547 6.98325
LeftLeg  49.1589 3.79538 5.08255
LeftFoot  -4.16061 0.584871 -8.88888
LeftToes  6.82088e-011 -2.45093e-011 5.71991e-013
317
root  22.6795 39.3722 7.71431 171.797 -71.346 -176.159
RightUpLeg  6.27803 -2.85516 -4.92482
RightLeg  23.5875 -3.867 -2.07785
RightFoot  -1.98423 -1.69097 20.3878
RightToes  -5.8209e-011 0 -3.6325e-017
Spine  4.06222 0.220232 -4.39412
Spine1  18.7968 -3.30763 11.241
HEad  32.3048 9.08258 -4.53271
LeftShoulder1  0.722363 11.5156 19.8961
LeftArm  -48.8545 -14.7423 -17.5098
LeftForeArm  2.31024 -65.3781 -27.1049
LeftHand  -2.25176 -3.71383 28.3884
RightShoulder  0.893061 -11.226 -22.6535
RightArm  -63.2157 7.12531 16.7293
RightForeArm  67.518 78.5351 94.3733
RightHand  -5.15058 10.1903 -37.354
LeftUpLeg  -10.2794 -5.26899 4.04405
LeftLeg  39.1909 8.84577 8.10314
LeftFoot  -5.42292 0.344782 -6.10178
LeftToes  6.82088e-011 -2.45093e-011 5.71991e-013
318
root  21.4851 39.9394 7.79956 179.884 -73.2202 177.375
RightUpLeg  5.31173 -4.94125 -8.14142
RightLeg  23.6652 -5.0591 -2.65478
RightFoot  5.7323 -3.13915 20.9941
RightToes  -5.8209e-011 0 -3.6325e-017
Spine  2.60406 0.410498 -4.76886
Spine1  18.9109 -2.57261 9.01042
HEad  31.3834 8.51912 -4.67879
LeftShoulder1  0.569277 11.5729 17.6445
LeftArm  -53.9654 -11.2372 -18.6182
LeftForeArm  45.5506 -77.9336 -73.1964
LeftHand  -1.74479 -2.827 24.5822
RightShoulder  0.868007 -11.445 -21.9364
RightArm  -66.4613 3.24357 18.1659
RightForeArm  111.629 73.6724 136.766
RightHand  -4.92734 9.96172 -36.3406
LeftUpLeg  -10.0692 -5.24088 0.946425
LeftLeg  27.7213 9.44987 5.7918
LeftFoot  -5.60197 0.352466 -6.26976
LeftToes  6.82088e-011 -2.45093e-011 5.71991e-013
319
root  20.213 40.0052 7.89099 -170.309 -74.9782 169.347
RightUpLeg  3.15036 -6.53296 -11.216
RightLeg  26.9031 -5.6997 -3.36592
RightFoot  10.0451 -4.06516 21.6649
RightToes  -5.8209e-011 0 -3.6325e-017
Spine  0.663478 0.187985 -5.32152
Spine1  19.1136 -2.21594 7.10007
HEad  30.6479 8.40811 -4.88165
LeftShoulder1  0.416674 11.4205 15.6509
LeftArm  -58.64 -7.02979 -18.4133
LeftForeArm  107.514 -71.7476 -142.013
LeftHand  -1.41408 -1.58208 23.5307
RightShoulder  0.79805 -11.4743 -20.9115
RightArm  -70.2592 0.000279037 18.945
RightForeArm  133.421 63.449 156.749
RightHand  -4.62174 9.61974 -34.9755
LeftUpLeg  -10.4856 -2.44942 -2.25645
LeftLeg  19.237 4.89112 2.2067
LeftFoot  -3.33388 0.541786 -7.54309
LeftToes  6.82088e-011 -2.45093e-011 5.71991e-013
320
root  18.9819 39.6321 8.00111 -161.595 -76.8181 161.121
RightUpLeg  1.8289 -6.85163 -13.6298
RightLeg  32.0374 -5.61752 -4.01807
RightFoot  11.4441 -4.74754 23.6461
RightToes  -5.8209e-011 0 -3.6325e-017
Spine  0.857418 -0.156299 -5.87641
Spine1  18.2417 -2.17914 5.52147
HEad  30.1482 8.15902 -4.96925
LeftShoulder1  0.395272 12.4253 14.6972
LeftArm  -62.5843 -4.34266 -18.5166
LeftForeArm  120.693 -59.6398 -159.201
LeftHand  -1.37662 -1.03244 24.7702
RightShoulder  0.810466 -11.7668 -20.6798
RightArm  -73.2243 -2.43809 18.875
RightForeArm  139.023 53.98 163.964
RightHand  -4.5314 9.39251 -34.8256
LeftUpLeg  -10.6125 3.33055 -5.20413
LeftLeg  17.7559 -1.09543 -0.147948
LeftFoot  -2.83264 0.471449 -5.9899
LeftToes  6.82088e-011 -2.45093e-011 5.71991e-013
321
root  17.842 38.9304 8.14834 -154.007 -78.949 152.426
RightUpLeg  1.2905 -6.58414 -15.5209
RightLeg  39.126 -4.90745 -4.53594
RightFoot  13.5407 -5.49102 24.9693
RightToes  -5.8209e-011 0 -3.6325e-017
Spine  3.517 -0.433381 -6.23941
Spine1  16.4252 -2.40928 4.19624
HEad  29.7623 7.48749 -4.73764
LeftShoulder1  0.436728 14.0641 14.3322
LeftArm  -66.1782 -3.87943 -18.6615
LeftForeArm  124.457 -53.2542 -163.71
LeftHand  -1.24006 -0.512748 24.2687
RightShoulder  0.885983 -12.3363 -20.9298
RightArm  -75.171 -3.61448 17.69
RightForeArm  139.318 48.8567 166.474
RightHand  -4.6207 9.44026 -35.3584
LeftUpLeg  -9.90355 5.82245 -7.20821
LeftLeg  22.1335 -2.69018 -0.820148
LeftFoot  -7.84229 0.110288 -1.266
LeftToes  6.82088e-011 -2.45093e-011 5.71991e-013
322
root  16.7632 37.9944 8.26252 -142.594 -80.5459 139.189
RightUpLeg  0.170151 -5.95278 -17.6525
RightLeg  48.1415 -3.83333 -4.89053
RightFoot  18.4573 -6.00228 22.8675
RightToes  -5.8209e-011 0 -3.6325e-017
Spine  6.11991 -0.49725 -7.8105
Spine1  15.3614 -2.92044 3.79068
HEad  29.5629 6.62868 -4.24991
LeftShoulder1  0.550176 14.5389 15.3227
LeftArm  -67.6683 -5.61029 -17.355
LeftForeArm  119.559 -60.2302 -157.638
LeftHand  -1.1819 -0.471657 23.3453
RightShoulder  0.954887 -12.5935 -21.4634
RightArm  -74.1262 -2.29597 15.9519
RightForeArm  139.785 52.7959 164.519
RightHand  -4.68716 9.6079 -35.459
LeftUpLeg  -8.74914 2.40584 -9.46432
LeftLeg  28.2613 0.480115 0.669878
LeftFoot  -15.7661 0.19312 2.87479
LeftToes  6.82088e-011 -2.45093e-011 5.71991e-013
323
root  15.725 37.0539 8.23925 -129.069 -79.873 124.18
RightUpLeg  -2.62133 -3.6432 -20.0605
RightLeg  57.5109 -2.63702 -4.89733
RightFoot  22.4124 -5.34124 17.97
RightToes  -5.8209e-011 0 -3.6325e-017
Spine  6.55279 0.0189351 -11.7067
Spine1  16.5104 -3.24026 4.05701
HEad  29.7461 6.02566 -3.86534
LeftShoulder1  0.804862 13.7473 18.5791
LeftArm  -65.0314 -9.66899 -14.9255
LeftForeArm  81.0768 -76.0793 -115.621
LeftHand  -1.50886 -1.56128 25.0164
RightShoulder  1.03168 -12.2859 -22.8611
RightArm  -69.5221 1.70474 14.8545
RightForeArm  132.572 66.0932 152.493
RightHand  -4.87496 9.87188 -36.1783
LeftUpLeg  -7.96781 -1.44153 -13.0618
LeftLeg  33.7256 3.50432 2.87671
LeftFoot  -21.8022 0.488919 4.01594
LeftToes  6.82088e-011 -2.45093e-011 5.71991e-013
